<mxfile host="app.diagrams.net" modified="2023-06-13T00:49:23.151Z" agent="Mozilla/5.0 (Windows NT 10.0; Win64; x64) AppleWebKit/537.36 (KHTML, like Gecko) Chrome/114.0.0.0 Safari/537.36 Edg/114.0.1823.41" etag="XUe2t7XPosdI-J-VCLxi" version="21.3.7" type="github">
  <diagram name="Page-1" id="2YBvvXClWsGukQMizWep">
    <mxGraphModel dx="989" dy="610" grid="1" gridSize="10" guides="1" tooltips="1" connect="1" arrows="1" fold="1" page="1" pageScale="1" pageWidth="850" pageHeight="1100" math="0" shadow="0">
      <root>
        <mxCell id="0" />
        <mxCell id="1" parent="0" />
        <mxCell id="NNKT52EiWI1NoeeISoCc-1" value="Requirements:&lt;br&gt;R &amp;amp; RStudio; &lt;br&gt;&lt;a href=&quot;https://happygitwithr.com/https-pat.html&quot;&gt;Establish GitHub PAT&lt;/a&gt; with scopes repo, user, gist, workflow, &lt;br&gt;admin:org;&amp;nbsp;&lt;br&gt;&lt;a href=&quot;https://happygitwithr.com/connect-intro.html&quot;&gt;Git setup in RStudio&lt;/a&gt;" style="shape=hexagon;perimeter=hexagonPerimeter2;whiteSpace=wrap;html=1;fixedSize=1;" vertex="1" parent="1">
          <mxGeometry x="10" y="175" width="140" height="110" as="geometry" />
        </mxCell>
        <mxCell id="NNKT52EiWI1NoeeISoCc-2" value="&lt;b&gt;1. Setup&lt;/b&gt;" style="ellipse;whiteSpace=wrap;html=1;aspect=fixed;" vertex="1" parent="1">
          <mxGeometry x="40" y="60" width="80" height="80" as="geometry" />
        </mxCell>
        <mxCell id="NNKT52EiWI1NoeeISoCc-3" value="Follow package&amp;nbsp;&lt;a href=&quot;https://github.com/openscapes/kyber#installation&quot;&gt;installation&lt;/a&gt; instructions" style="rounded=1;whiteSpace=wrap;html=1;" vertex="1" parent="1">
          <mxGeometry x="260" y="70" width="120" height="60" as="geometry" />
        </mxCell>
        <mxCell id="NNKT52EiWI1NoeeISoCc-10" value="" style="endArrow=none;dashed=1;html=1;rounded=0;" edge="1" parent="1">
          <mxGeometry width="50" height="50" relative="1" as="geometry">
            <mxPoint x="80" y="180" as="sourcePoint" />
            <mxPoint x="80" y="140" as="targetPoint" />
            <Array as="points" />
          </mxGeometry>
        </mxCell>
        <mxCell id="NNKT52EiWI1NoeeISoCc-12" value="" style="endArrow=none;dashed=1;html=1;rounded=0;entryX=0.5;entryY=1;entryDx=0;entryDy=0;exitX=0.493;exitY=0.1;exitDx=0;exitDy=0;exitPerimeter=0;" edge="1" parent="1">
          <mxGeometry width="50" height="50" relative="1" as="geometry">
            <mxPoint x="319.8800000000001" y="187" as="sourcePoint" />
            <mxPoint x="321" y="130" as="targetPoint" />
          </mxGeometry>
        </mxCell>
        <mxCell id="NNKT52EiWI1NoeeISoCc-13" value="" style="endArrow=classic;html=1;rounded=0;entryX=0;entryY=0.5;entryDx=0;entryDy=0;exitX=1;exitY=0.5;exitDx=0;exitDy=0;" edge="1" parent="1" source="NNKT52EiWI1NoeeISoCc-2" target="NNKT52EiWI1NoeeISoCc-3">
          <mxGeometry width="50" height="50" relative="1" as="geometry">
            <mxPoint x="161" y="125" as="sourcePoint" />
            <mxPoint x="211" y="75" as="targetPoint" />
          </mxGeometry>
        </mxCell>
        <mxCell id="NNKT52EiWI1NoeeISoCc-14" value="Follow package&amp;nbsp;&lt;a href=&quot;https://github.com/openscapes/kyber#configuration&quot;&gt;configuration&lt;/a&gt; instructions" style="rounded=1;whiteSpace=wrap;html=1;" vertex="1" parent="1">
          <mxGeometry x="520" y="70" width="120" height="60" as="geometry" />
        </mxCell>
        <mxCell id="NNKT52EiWI1NoeeISoCc-15" value="" style="endArrow=classic;html=1;rounded=0;entryX=0;entryY=0.5;entryDx=0;entryDy=0;exitX=1;exitY=0.5;exitDx=0;exitDy=0;" edge="1" parent="1" source="NNKT52EiWI1NoeeISoCc-3" target="NNKT52EiWI1NoeeISoCc-14">
          <mxGeometry width="50" height="50" relative="1" as="geometry">
            <mxPoint x="460" y="120" as="sourcePoint" />
            <mxPoint x="510" y="70" as="targetPoint" />
          </mxGeometry>
        </mxCell>
        <mxCell id="NNKT52EiWI1NoeeISoCc-16" value="May need to&lt;br&gt;un/install other&lt;br&gt;packages to complete&amp;nbsp;" style="ellipse;shape=cloud;whiteSpace=wrap;html=1;" vertex="1" parent="1">
          <mxGeometry x="240" y="170" width="160" height="120" as="geometry" />
        </mxCell>
        <mxCell id="NNKT52EiWI1NoeeISoCc-17" value="Allow Tidyverse API to connect to Google &lt;br&gt;account where agendas&lt;br&gt;&amp;amp; spreadsheets live" style="ellipse;shape=cloud;whiteSpace=wrap;html=1;" vertex="1" parent="1">
          <mxGeometry x="500" y="175" width="160" height="120" as="geometry" />
        </mxCell>
        <mxCell id="NNKT52EiWI1NoeeISoCc-20" value="" style="endArrow=none;dashed=1;html=1;rounded=0;exitX=0.506;exitY=0.117;exitDx=0;exitDy=0;exitPerimeter=0;entryX=0.5;entryY=1;entryDx=0;entryDy=0;" edge="1" parent="1" source="NNKT52EiWI1NoeeISoCc-17" target="NNKT52EiWI1NoeeISoCc-14">
          <mxGeometry width="50" height="50" relative="1" as="geometry">
            <mxPoint x="550" y="180" as="sourcePoint" />
            <mxPoint x="600" y="130" as="targetPoint" />
          </mxGeometry>
        </mxCell>
        <mxCell id="NNKT52EiWI1NoeeISoCc-22" value="2. Make&lt;br&gt;Repo" style="ellipse;whiteSpace=wrap;html=1;aspect=fixed;fontStyle=1" vertex="1" parent="1">
          <mxGeometry x="40" y="400" width="80" height="80" as="geometry" />
        </mxCell>
        <mxCell id="NNKT52EiWI1NoeeISoCc-26" value="Follow package &lt;a href=&quot;https://github.com/openscapes/kyber#create-github-repo&quot;&gt;Create Github repo&lt;/a&gt; instructions; repo_name is &quot;yyyy-swrcb&quot;" style="rounded=1;whiteSpace=wrap;html=1;" vertex="1" parent="1">
          <mxGeometry x="260" y="400" width="120" height="80" as="geometry" />
        </mxCell>
        <mxCell id="NNKT52EiWI1NoeeISoCc-27" value="Edit README.md to be cohort website and push to Github?" style="rounded=1;whiteSpace=wrap;html=1;" vertex="1" parent="1">
          <mxGeometry x="520" y="410" width="120" height="60" as="geometry" />
        </mxCell>
        <mxCell id="NNKT52EiWI1NoeeISoCc-28" value="3. Make&lt;br&gt;Agenda" style="ellipse;whiteSpace=wrap;html=1;aspect=fixed;fontStyle=1" vertex="1" parent="1">
          <mxGeometry x="40" y="600" width="80" height="80" as="geometry" />
        </mxCell>
        <mxCell id="NNKT52EiWI1NoeeISoCc-29" value="4. Create Github Clinic" style="ellipse;whiteSpace=wrap;html=1;aspect=fixed;fontStyle=1" vertex="1" parent="1">
          <mxGeometry x="40" y="800" width="80" height="80" as="geometry" />
        </mxCell>
        <mxCell id="NNKT52EiWI1NoeeISoCc-30" value="5. Create Github Team" style="ellipse;whiteSpace=wrap;html=1;aspect=fixed;fontStyle=1" vertex="1" parent="1">
          <mxGeometry x="40" y="1000" width="80" height="80" as="geometry" />
        </mxCell>
      </root>
    </mxGraphModel>
  </diagram>
</mxfile>
